<svg width="868" height="516" viewBox="0 0 868 516" fill="none" xmlns="http://www.w3.org/2000/svg">
<path d="M868 516H277.804V341.5H111.458V154.378C111.458 132.839 128.919 115.378 150.458 115.378H820.631L827.691 104.772C842.707 82.2142 839.755 52.2 820.631 33H130.938C76.2613 33 31.9375 77.3238 31.9375 132V341.5H0V0H868V516Z" fill="#141510"/>
<path d="M816.571 35L816.572 31H816.571V35ZM816.571 113.999L816.571 109.999L812.571 109.999V113.999H816.571ZM816.571 114V118H820.571V114H816.571ZM150.104 114V110H150.104L150.104 114ZM111.104 336.516H107.104V337.128L107.287 337.712L111.104 336.516ZM71.7832 359L71.7832 363H71.7832V359ZM32.0127 339L36.0074 339.205L36.2234 335H32.0127V339ZM32 339H28V343H32V339ZM816.571 35L816.571 39C819.57 39.0002 823.401 41.5875 826.72 48.3351C829.912 54.8245 832 64.0699 832 74.5H836H840C840 63.1152 837.739 52.6109 833.899 44.8042C830.186 37.2558 824.302 31.0005 816.572 31L816.571 35ZM836 74.5H832C832 84.9301 829.912 94.1752 826.72 100.664C823.401 107.412 819.571 109.999 816.571 109.999L816.571 113.999L816.572 117.999C824.302 117.999 830.186 111.744 833.899 104.195C837.739 96.3888 840 85.8848 840 74.5H836ZM816.571 113.999H812.571V114H816.571H820.571V113.999H816.571ZM816.571 114V110H150.104V114V118H816.571V114ZM150.104 114L150.104 110C126.356 110 107.104 129.252 107.104 153H111.104H115.104C115.104 133.67 130.775 118 150.105 118L150.104 114ZM111.104 153H107.104V336.516H111.104H115.104V153H111.104ZM111.104 336.516L107.287 337.712C107.476 338.313 107.567 338.906 107.567 339.5H111.567H115.567C115.567 338.064 115.343 336.665 114.922 335.32L111.104 336.516ZM111.567 339.5H107.567C107.567 342.511 104.959 346.362 98.1543 349.697C91.6122 352.903 82.2937 355 71.7832 355V359V363C83.2446 363 93.8182 360.731 101.675 356.88C109.27 353.158 115.567 347.258 115.567 339.5H111.567ZM71.7832 359L71.7832 355C61.2728 355 51.9546 352.903 45.4127 349.697C38.6083 346.362 36 342.512 36 339.5H32H28C28 347.258 34.2974 353.158 41.8917 356.88C49.7485 360.731 60.3219 363 71.7832 363L71.7832 359ZM32 339.5H36C36 339.399 36.0025 339.301 36.0074 339.205L32.0127 339L28.018 338.795C28.0058 339.031 28 339.266 28 339.5H32ZM32.0127 339V335H32V339V343H32.0127V339ZM32 339H36V134H32H28V339H32ZM32 134H36C36 81.533 78.533 39 131 39V35V31C74.1147 31 28 77.1147 28 134H32ZM131 35V39H816.571V35V31H131V35Z" fill="#B4E177"/>
</svg>
