<svg width="28" height="15" viewBox="0 0 28 15" fill="none" xmlns="http://www.w3.org/2000/svg">
<g clip-path="url(#clip0_555_105704)">
<path d="M10.2675 14.9496C11.8379 14.9496 13.1111 13.6444 13.1111 12.0343C13.1111 10.4243 11.8379 9.11914 10.2675 9.11914C8.69697 9.11914 7.42383 10.4243 7.42383 12.0343C7.42383 13.6444 8.69697 14.9496 10.2675 14.9496Z" fill="white"/>
<path d="M17.7 14.9496C19.2706 14.9496 20.5437 13.6444 20.5437 12.0343C20.5437 10.4243 19.2706 9.11914 17.7 9.11914C16.1296 9.11914 14.8564 10.4243 14.8564 12.0343C14.8564 13.6444 16.1296 14.9496 17.7 14.9496Z" fill="white"/>
<path d="M13.9789 0C6.25786 0 -0.00202057 6.53975 4.89249e-07 14.6045H3.5712C3.5712 8.56059 8.19403 3.66043 13.9789 3.66043C19.7639 3.66043 24.3867 8.56059 24.3867 14.6045H27.9579C27.9593 6.53975 21.6994 0 13.9789 0Z" fill="white"/>
</g>
<defs>
<clipPath id="clip0_555_105704">
<rect width="28" height="15" fill="white"/>
</clipPath>
</defs>
</svg>
