<svg xmlns="http://www.w3.org/2000/svg" width="24" height="17" viewBox="0 0 24 17" fill="none">
  <path d="M21.0275 2.45538C19.3762 1.17536 17.3945 0.535385 15.3028 0.428711L14.9725 0.748734C16.844 1.17536 18.4954 2.02868 20.0367 3.20203C18.1651 2.24203 16.0734 1.60206 13.8715 1.38871C13.211 1.28203 12.6605 1.28203 12 1.28203C11.3395 1.28203 10.789 1.28203 10.1285 1.38871C7.9266 1.60206 5.83485 2.24203 3.9633 3.20203C5.50455 2.02868 7.15597 1.17536 9.02752 0.748734L8.69723 0.428711C6.60547 0.535385 4.62383 1.17536 2.97247 2.45538C1.10092 5.86874 0.110092 9.70873 0 13.6553C1.65135 15.362 3.9633 16.4287 6.38535 16.4287C6.38535 16.4287 7.15597 15.5754 7.7064 14.8287C6.27525 14.5087 4.95412 13.762 4.0734 12.5887C4.84403 13.0153 5.61465 13.442 6.38535 13.762C7.37617 14.1887 8.367 14.402 9.35783 14.6154C10.2386 14.722 11.1193 14.8287 12 14.8287C12.8807 14.8287 13.7614 14.722 14.6422 14.6154C15.633 14.402 16.6238 14.1887 17.6147 13.762C18.3854 13.442 19.156 13.0153 19.9266 12.5887C19.0459 13.762 17.7248 14.5087 16.2936 14.8287C16.844 15.5754 17.6147 16.4287 17.6147 16.4287C20.0367 16.4287 22.3486 15.362 24 13.6553C23.8899 9.70873 22.8991 5.86874 21.0275 2.45538ZM8.367 11.7353C7.26608 11.7353 6.27525 10.7753 6.27525 9.60206C6.27525 8.42871 7.26608 7.46871 8.367 7.46871C9.46793 7.46871 10.4587 8.42871 10.4587 9.60206C10.4587 10.7753 9.46793 11.7353 8.367 11.7353ZM15.633 11.7353C14.5321 11.7353 13.5413 10.7753 13.5413 9.60206C13.5413 8.42871 14.5321 7.46871 15.633 7.46871C16.7339 7.46871 17.7248 8.42871 17.7248 9.60206C17.7248 10.7753 16.7339 11.7353 15.633 11.7353Z" fill="white"/>
</svg>