<svg width="32" height="32" viewBox="0 0 32 32" fill="none" xmlns="http://www.w3.org/2000/svg">
<mask id="mask0_467_312215" style="mask-type:luminance" maskUnits="userSpaceOnUse" x="1" y="1" width="30" height="30">
<path d="M1.04443 1.099H30.9559V30.901H1.04443V1.099Z" fill="white"/>
</mask>
<g mask="url(#mask0_467_312215)">
<path d="M27.2151 16.7551L10.7425 26.2655C9.60496 26.9223 9.21501 28.3765 9.87159 29.5137C10.5281 30.6509 11.9826 31.0404 13.1202 30.3836L29.5927 20.8732C30.7303 20.2164 31.1203 18.7621 30.4637 17.6248C29.8071 16.4877 28.3527 16.0983 27.2151 16.7551Z" fill="white"/>
<path d="M15.822 13.7146L3.46766 20.8474C2.33008 21.5042 1.94011 22.9584 2.59667 24.0956C3.25323 25.2328 4.7077 25.6223 5.8453 24.9655L18.1998 17.8327C19.3372 17.1759 19.7272 15.7215 19.0707 14.5843C18.4142 13.4472 16.9596 13.0577 15.822 13.7146Z" fill="white"/>
<path d="M18.8772 2.31267L2.40467 11.8231C1.26708 12.4799 0.877128 13.9342 1.53368 15.0714C2.19024 16.2086 3.64469 16.598 4.78228 15.9412L21.2549 6.4308C22.3924 5.77404 22.7824 4.31971 22.1259 3.18252C21.4693 2.04534 20.0148 1.65588 18.8772 2.31267Z" fill="white"/>
</g>
</svg>
