<svg xmlns="http://www.w3.org/2000/svg" width="20" height="21" viewBox="0 0 20 21" fill="none">
  <path fill-rule="evenodd" clip-rule="evenodd" d="M9.96942 0.668701C4.46483 0.668701 0 5.13353 0 10.6381C0 15.0418 2.87462 18.7727 6.78899 20.1182C7.27829 20.1794 7.46177 19.8736 7.46177 19.6289C7.46177 19.3843 7.46177 18.7727 7.46177 17.9164C4.70948 18.528 4.09786 16.5708 4.09786 16.5708C3.66972 15.4088 2.99694 15.103 2.99694 15.103C2.07951 14.4913 3.0581 14.4913 3.0581 14.4913C4.0367 14.5525 4.58716 15.5311 4.58716 15.5311C5.50459 17.0601 6.91131 16.632 7.46177 16.3874C7.52294 15.7146 7.82875 15.2864 8.07339 15.0418C5.87156 14.7971 3.5474 13.9409 3.5474 10.0877C3.5474 8.98674 3.91437 8.13048 4.58716 7.39653C4.52599 7.21304 4.15902 6.17329 4.70948 4.82772C4.70948 4.82772 5.56575 4.58307 7.46177 5.86748C8.25688 5.62283 9.11315 5.56167 9.96942 5.56167C10.8257 5.56167 11.682 5.68399 12.4771 5.86748C14.3731 4.58307 15.2294 4.82772 15.2294 4.82772C15.7798 6.17329 15.4128 7.21304 15.3517 7.45769C15.9633 8.13048 16.3914 9.04791 16.3914 10.1488C16.3914 14.002 14.0673 14.7971 11.8654 15.0418C12.2324 15.3476 12.5382 15.9592 12.5382 16.8767C12.5382 18.2222 12.5382 19.262 12.5382 19.6289C12.5382 19.8736 12.7217 20.1794 13.211 20.1182C17.1865 18.7727 20 15.0418 20 10.6381C19.9388 5.13353 15.474 0.668701 9.96942 0.668701Z" fill="white"/>
</svg>