<svg width="32" height="32" viewBox="0 0 32 32" fill="none" xmlns="http://www.w3.org/2000/svg">
<path d="M5.35547 20.9878V28.2644C5.35547 28.7123 5.73455 28.8983 5.8525 28.9405C5.97045 28.9912 6.36639 29.1011 6.72005 28.7715L12.2248 23.4815C12.6937 23.031 13.1461 22.5575 13.486 22.0035C13.6461 21.743 13.7124 21.5963 13.7124 21.5963C14.0493 20.9118 14.0493 20.2526 13.7208 19.5933C13.2325 18.613 11.9856 17.6157 10.1069 16.6692L6.89697 18.4609C5.94517 19.0018 5.35547 19.9568 5.35547 20.9878Z" fill="white" fill-opacity="0.8"/>
<path d="M2.19043 4.80349V12.435C2.19043 13.3901 2.83072 14.2352 3.74058 14.5056C6.84061 15.4015 12.2406 17.3283 13.5465 20.1596C13.715 20.5314 13.8161 20.8948 13.8501 21.2751C14.7175 19.6948 15.1135 17.8777 14.9282 16.0353C14.6754 13.4238 13.2937 11.049 11.1373 9.53622L3.44571 4.15274C3.31091 4.05132 3.15083 4.00061 2.99076 4.00061C2.85596 4.00061 2.73801 4.02597 2.61168 4.09358C2.35893 4.23725 2.19043 4.49925 2.19043 4.80349Z" fill="white"/>
<path d="M25.8297 20.9878V28.2644C25.8297 28.7123 25.4506 28.8983 25.3326 28.9405C25.2147 28.9912 24.8187 29.1011 24.4649 28.7715L18.8319 23.3584C18.4487 22.9899 18.0824 22.6001 17.7938 22.1535C17.5649 21.8 17.4726 21.5963 17.4726 21.5963C17.1356 20.9118 17.1356 20.2526 17.4641 19.5933C17.9528 18.613 19.1997 17.6157 21.0781 16.6692L24.2879 18.4609C25.2484 19.0018 25.8297 19.9568 25.8297 20.9878Z" fill="white" fill-opacity="0.8"/>
<path d="M29 4.80288V12.4344C29 13.3894 28.3597 14.2345 27.4495 14.505C24.3495 15.4009 18.9495 17.3278 17.6436 20.1589C17.4751 20.5308 17.374 20.8942 17.3403 21.2745C16.4726 19.6941 16.077 17.8771 16.2619 16.0347C16.5147 13.4232 17.8964 11.0484 20.0531 9.53565L27.7447 4.15212C27.8795 4.05071 28.0396 4 28.1997 4C28.3345 4 28.4524 4.02535 28.5784 4.09297C28.8312 4.23664 29 4.49863 29 4.80288Z" fill="white"/>
</svg>
