<svg width="32" height="32" viewBox="0 0 32 32" fill="none" xmlns="http://www.w3.org/2000/svg">
<path d="M27.0673 21.8363L19.2367 18.6084C18.942 18.4866 18.6296 18.4231 18.3137 18.4231H18.2978C17.6325 18.4231 16.9989 18.6913 16.5383 19.1679L15.8518 19.8755C15.6947 20.0361 15.4917 20.1226 15.2835 20.1332C15.0752 20.1244 14.8723 20.0379 14.7152 19.8755L14.0287 19.1679C13.5681 18.6913 12.9345 18.4231 12.2691 18.4231H12.2533C11.9374 18.4231 11.625 18.4866 11.3303 18.6084L4.58506 21.328C4.33799 21.4304 4.21268 21.7163 4.31857 21.9669L4.65918 22.7911C4.75978 23.0417 5.04921 23.1581 5.29452 23.0558L12.5074 20.1438C12.9098 19.9779 13.3122 20.3821 13.141 20.7844L9.73484 28.9662C9.63248 29.2186 9.74896 29.501 9.99957 29.6068C9.99957 29.6068 10.942 29.988 11.0143 29.988C11.2067 29.988 11.3867 29.8751 11.4661 29.6898L14.8705 21.5027C14.9499 21.3156 15.1158 21.2168 15.287 21.2062C15.4582 21.2186 15.6241 21.3156 15.7035 21.5027L18.2484 27.6267C18.3543 27.8738 18.6384 27.9938 18.889 27.8879L19.7132 27.5438C19.9638 27.4379 20.0803 27.1555 19.9779 26.9031L17.4295 20.7827C17.2583 20.3803 17.6607 19.9761 18.0631 20.142L26.3613 23.5605C26.6066 23.6629 26.8961 23.5464 26.9967 23.2958L27.3373 22.4716C27.4432 22.221 27.3179 21.9369 27.0708 21.8327L27.0673 21.8363Z" fill="#A2E86A"/>
<path d="M4.58273 10.0032L12.4133 13.2311C12.708 13.3529 13.0204 13.4164 13.3363 13.4164H13.3522C14.0175 13.4164 14.6511 13.1481 15.1117 12.6716L15.7982 11.9639C15.9553 11.8033 16.1583 11.7169 16.3665 11.7063C16.5748 11.7151 16.7777 11.8016 16.9348 11.9639L17.6213 12.6716C18.0819 13.1481 18.7155 13.4164 19.3809 13.4164H19.3967C19.7126 13.4164 20.025 13.3529 20.3197 13.2311L27.0649 10.5115C27.312 10.4091 27.4373 10.1232 27.3314 9.8726L26.9908 9.04843C26.8902 8.79782 26.6008 8.68134 26.3555 8.7837L19.1426 11.6957C18.7402 11.8616 18.3378 11.4574 18.509 11.055L21.9152 2.87328C22.0175 2.62091 21.901 2.33853 21.6504 2.23264C21.6504 2.23264 20.708 1.85144 20.6356 1.85144C20.4433 1.85144 20.2633 1.96439 20.1839 2.1497L16.7795 10.3368C16.7001 10.5238 16.5342 10.6227 16.363 10.6333C16.1918 10.6209 16.0259 10.5238 15.9465 10.3368L13.4016 4.21279C13.2957 3.96571 13.0116 3.8457 12.761 3.95159L11.9368 4.29574C11.6862 4.40162 11.5697 4.68399 11.6721 4.93636L14.2205 11.0568C14.3917 11.4592 13.9893 11.8633 13.5869 11.6974L5.28866 8.27896C5.04335 8.1766 4.75392 8.29308 4.65333 8.54368L4.31271 9.36786C4.20682 9.61847 4.33212 9.90261 4.5792 10.0067L4.58273 10.0032Z" fill="#A2E86A"/>
<path d="M13.0775 16.4129C13.0828 16.6847 12.8569 16.9 12.5904 16.9H3.0197C2.7691 16.9 2.55732 16.6847 2.56261 16.4129L2.55908 15.5181C2.55908 15.2463 2.77086 15.031 3.02147 15.031H12.5922C12.8586 15.031 13.0845 15.2463 13.0845 15.5181L13.0793 16.4129H13.0775Z" fill="#A2E86A"/>
<path d="M28.9948 16.4129C28.9983 16.6847 28.7883 16.9 28.5377 16.9H18.967C18.7005 16.9 18.4746 16.6847 18.4799 16.4129L18.4746 15.5181C18.4746 15.2463 18.6987 15.031 18.967 15.031H28.5377C28.7883 15.031 29.0001 15.2463 29.0001 15.5181L28.9965 16.4129H28.9948Z" fill="#A2E86A"/>
</svg>
