<svg width="128" height="128" viewBox="0 0 128 128" fill="none" xmlns="http://www.w3.org/2000/svg">
<g clip-path="url(#clip0_523_384081)">
<rect width="128" height="128" fill="white"/>
<rect width="131" height="136.408" transform="translate(-1 -4)" fill="#A2E76B"/>
<path d="M32.9657 47.2756L54.9378 56.3329C55.7619 56.6739 56.6428 56.8515 57.5307 56.8515H57.5734C59.4417 56.8515 61.2176 56.0985 62.5105 54.763L64.4356 52.7739C64.8761 52.3193 65.4444 52.0777 66.0269 52.0493C66.6094 52.0777 67.1777 52.3193 67.6181 52.7739L69.5433 54.763C70.8362 56.0985 72.6121 56.8515 74.4804 56.8515H74.523C75.411 56.8515 76.2848 56.6739 77.1159 56.3329L96.0405 48.7034C96.7367 48.4122 97.0848 47.6165 96.7864 46.9133L95.8274 44.5974C95.5432 43.8941 94.7334 43.5674 94.0443 43.8586L73.8127 52.028C72.6831 52.4969 71.5536 51.3602 72.0367 50.2307L81.5913 27.2712C81.8826 26.5608 81.5487 25.7723 80.8525 25.474C80.8525 25.474 78.2099 24.4084 78.0039 24.4084C77.464 24.4084 76.9597 24.721 76.7394 25.2466L67.1848 48.2133C66.9646 48.7389 66.4957 49.016 66.0198 49.0444C65.5438 49.0089 65.075 48.7389 64.8548 48.2133L57.7154 31.0291C57.4171 30.333 56.6215 29.9991 55.9182 30.2974L53.6023 31.2636C52.899 31.5619 52.5723 32.3504 52.8635 33.0608L60.01 50.2307C60.4859 51.3602 59.3635 52.4898 58.234 52.028L34.9548 42.4379C34.2658 42.1466 33.4559 42.4805 33.1718 43.1767L32.2127 45.4925C31.9144 46.1958 32.2625 46.9914 32.9587 47.2827L32.9657 47.2756Z" fill="black"/>
<path d="M56.9246 65.4578C56.9388 66.2179 56.3065 66.8217 55.5606 66.8217H28.7082C28.0049 66.8217 27.4082 66.2179 27.4224 65.4578L27.4082 62.9502C27.4082 62.1901 27.9978 61.5862 28.7082 61.5862H55.5606C56.3065 61.5862 56.9387 62.1901 56.9387 62.9502L56.9246 65.4578Z" fill="black"/>
<path d="M101.577 65.4578C101.591 66.2179 100.994 66.8217 100.291 66.8217H73.4387C72.6928 66.8217 72.0605 66.2179 72.0747 65.4578L72.0605 62.9501C72.0605 62.19 72.6928 61.5862 73.4387 61.5862H100.291C100.994 61.5862 101.591 62.19 101.591 62.9501L101.577 65.4578Z" fill="black"/>
<path d="M96.0334 81.1324L74.0613 72.0751C73.2373 71.7341 72.3564 71.5565 71.4684 71.5565H71.4258C69.5575 71.5565 67.7815 72.3095 66.4886 73.645L64.5635 75.6341C64.1231 76.0887 63.5548 76.3303 62.9722 76.3587C62.3897 76.3303 61.8214 76.0887 61.381 75.6341L59.4559 73.645C58.163 72.3095 56.387 71.5565 54.5187 71.5565H54.4761C53.5881 71.5565 52.7143 71.7341 51.8832 72.0751L32.9586 79.7046C32.2625 79.9958 31.9144 80.7915 32.2127 81.4947L33.1718 83.8106C33.4559 84.5139 34.2657 84.8406 34.9548 84.5494L55.1865 76.38C56.316 75.9111 57.4455 77.0477 56.9624 78.1772L47.4078 101.137C47.1165 101.847 47.4504 102.636 48.1466 102.934C48.1466 102.934 50.7892 104 50.9952 104C51.5351 104 52.0395 103.687 52.2597 103.161L61.8143 80.1947C62.0345 79.669 62.5034 79.392 62.9794 79.3636C63.4553 79.3991 63.9241 79.669 64.1444 80.1947L71.2837 97.3788C71.5821 98.075 72.3777 98.4089 73.081 98.1105L75.3968 97.1444C76.1001 96.8461 76.4269 96.0575 76.1356 95.3472L68.9892 78.1772C68.5132 77.0477 69.6356 75.9182 70.7651 76.38L94.0443 85.9701C94.7334 86.2614 95.5432 85.9275 95.8274 85.2313L96.7864 82.9155C97.0847 82.2122 96.7367 81.4166 96.0405 81.1253L96.0334 81.1324Z" fill="black"/>
</g>
<defs>
<clipPath id="clip0_523_384081">
<rect width="128" height="128" fill="white"/>
</clipPath>
</defs>
</svg>
