<svg width="164" height="48" viewBox="0 0 164 48" fill="none" xmlns="http://www.w3.org/2000/svg">
<path d="M50.0522 16.0832H56.966C58.7936 16.0832 60.1583 16.6125 61.0839 17.5595C61.9645 18.4614 62.4937 19.6956 62.4937 21.1481C62.4937 24.1197 60.5333 26.1252 57.2319 26.1252H53.3561V31.8285H50.0522V16.0856V16.0832ZM53.3537 23.5263H56.6575C58.3308 23.5263 59.2113 22.6007 59.2113 21.1695C59.2113 19.7383 58.2857 18.8578 56.7002 18.8578H53.3537V23.5263Z" fill="#A2E86A"/>
<path d="M66.1708 22.3372H66.2373C66.9208 21.0603 67.6898 20.4005 69.0118 20.4005C69.3417 20.4005 69.5411 20.4219 69.7167 20.4883V23.1086H69.6503C67.6898 22.9116 66.2824 23.9464 66.2824 26.3246V31.8285H63.2871V20.5334H66.1708V22.3396V22.3372Z" fill="#A2E86A"/>
<path d="M70.4644 16.0832H73.4596V18.77H70.4644V16.0832ZM70.4644 20.531H73.4596V31.8262H70.4644V20.531Z" fill="#A2E86A"/>
<path d="M74.8456 20.531H77.7293V22.05H77.7957C78.4128 21.0152 79.5141 20.2225 81.0758 20.2225C82.507 20.2225 83.651 21.0152 84.2016 22.2043H84.2467C85.0181 20.9701 86.2072 20.2225 87.6383 20.2225C90.0165 20.2225 91.3599 21.7628 91.3599 24.2288V31.8261H88.3646V24.7367C88.3646 23.4598 87.7261 22.8 86.6249 22.8C85.3693 22.8 84.598 23.7684 84.598 25.266V31.8285H81.6027V24.7391C81.6027 23.4622 80.9643 22.8024 79.863 22.8024C78.6525 22.8024 77.8361 23.7707 77.8361 25.2684V31.8309H74.8408V20.5358L74.8456 20.531Z" fill="#A2E86A"/>
<path d="M92.1074 26.1679C92.1074 22.8214 94.3763 20.2225 97.6778 20.2225C101.311 20.2225 103.248 22.997 103.248 27.0271H95.0575C95.2782 28.7668 96.2466 29.8443 97.9412 29.8443C99.1089 29.8443 99.7901 29.3151 100.12 28.4583H103.07C102.652 30.4614 100.868 32.1584 97.9626 32.1584C94.2197 32.1584 92.105 29.5382 92.105 26.1703L92.1074 26.1679ZM95.1026 24.9575H100.122C100.035 23.5263 99.0876 22.5342 97.7229 22.5342C96.1374 22.5342 95.3661 23.4812 95.1026 24.9575Z" fill="#A2E86A"/>
<path d="M106.31 16.0832H109.657L112.431 25.1996C112.74 26.2344 113.115 27.7106 113.115 27.7106H113.16C113.16 27.7106 113.535 26.213 113.843 25.1996L116.596 16.0832H119.834L114.527 31.8262H111.619L106.312 16.0832H106.31Z" fill="#A2E86A"/>
<path d="M125.731 30.573H125.686C125.114 31.4322 124.3 32.092 122.361 32.092C120.049 32.092 118.419 30.8815 118.419 28.6339C118.419 26.1466 120.446 25.3538 122.955 25.0002C124.827 24.7367 125.684 24.5825 125.684 23.7233C125.684 22.9092 125.046 22.3799 123.79 22.3799C122.38 22.3799 121.699 22.8855 121.611 23.9654H118.946C119.034 21.9836 120.51 20.2438 123.811 20.2438C127.113 20.2438 128.568 21.7628 128.568 24.4045V30.1505C128.568 31.0097 128.701 31.5152 128.964 31.7146V31.8238H126.08C125.905 31.6031 125.793 31.0761 125.729 30.5682L125.731 30.573ZM125.753 27.8412V26.1466C125.224 26.4551 124.409 26.6307 123.662 26.8064C122.098 27.1576 121.329 27.5113 121.329 28.5674C121.329 29.6236 122.034 29.9986 123.09 29.9986C124.808 29.9986 125.755 28.9424 125.755 27.8412H125.753Z" fill="#A2E86A"/>
<path d="M137.049 31.8262V30.5042H136.982C136.211 31.539 135.33 32.1347 133.745 32.1347C131.234 32.1347 129.826 30.5279 129.826 28.0619V20.531H132.798V27.554C132.798 28.876 133.391 29.6023 134.67 29.6023C136.08 29.6023 136.939 28.5461 136.939 27.0484V20.531H139.935V31.8262H137.051H137.049Z" fill="#A2E86A"/>
<path d="M141.365 16.0832H144.36V31.8262H141.365V16.0832Z" fill="#A2E86A"/>
<path d="M145.13 20.531H146.694V17.0089H149.623V20.531H151.559V22.5129H149.623V28.501C149.623 29.3388 150.086 29.6236 150.745 29.6236C151.12 29.6236 151.626 29.6023 151.626 29.6023V31.8048C151.626 31.8048 150.942 31.8499 149.753 31.8499C148.301 31.8499 146.692 31.2779 146.692 29.1418V22.5152H145.127V20.5334L145.13 20.531Z" fill="#A2E86A"/>
<path d="M151.956 28.1711H154.73C154.929 29.4693 155.853 30.0437 157.196 30.0437C158.539 30.0437 159.266 29.5382 159.266 28.7454C159.266 27.6655 157.835 27.5564 156.294 27.2478C154.267 26.8514 152.288 26.3008 152.288 23.8348C152.288 21.3688 154.315 20.2249 156.89 20.2249C159.861 20.2249 161.513 21.7011 161.734 23.9677H159.026C158.893 22.7573 158.124 22.3158 156.847 22.3158C155.679 22.3158 154.91 22.7573 154.91 23.5714C154.91 24.5397 156.408 24.6276 158.015 24.9575C159.909 25.3538 162 25.8831 162 28.5247C162 30.7937 160.063 32.1584 157.244 32.1584C153.963 32.1584 152.136 30.573 151.958 28.1734L151.956 28.1711Z" fill="#A2E86A"/>
<path d="M35.6199 31.6719L25.089 27.3309C24.6926 27.1671 24.2725 27.0817 23.8477 27.0817H23.8263C22.9315 27.0817 22.0795 27.4424 21.46 28.0832L20.5368 29.035C20.3255 29.251 20.0526 29.3673 19.7725 29.3815C19.4925 29.3696 19.2195 29.2533 19.0083 29.035L18.085 28.0832C17.4655 27.4424 16.6135 27.0817 15.7187 27.0817H15.6973C15.2725 27.0817 14.8524 27.1671 14.456 27.3309L5.38482 30.9883C5.05254 31.126 4.88403 31.5105 5.02643 31.8475L5.48451 32.9559C5.61979 33.2929 6.00903 33.4496 6.33894 33.3119L16.0391 29.3958C16.5803 29.1727 17.1214 29.7162 16.8912 30.2573L12.3105 41.2605C12.1728 41.5999 12.3295 41.9796 12.6665 42.1221C12.6665 42.1221 13.9339 42.6347 14.0312 42.6347C14.2899 42.6347 14.532 42.4828 14.6388 42.2336L19.2171 31.2233C19.3239 30.9717 19.547 30.8388 19.7773 30.8245C20.0075 30.8412 20.2306 30.9717 20.3374 31.2233L23.7599 39.4591C23.9023 39.7913 24.2844 39.9527 24.6214 39.8103L25.7298 39.3475C26.0668 39.2051 26.2235 38.8254 26.0858 38.486L22.6586 30.2549C22.4284 29.7138 22.9695 29.1703 23.5107 29.3934L34.6705 33.9907C35.0004 34.1284 35.3897 33.9717 35.5249 33.6347L35.983 32.5263C36.1254 32.1893 35.9569 31.8071 35.6246 31.6671L35.6199 31.6719Z" fill="#A2E86A"/>
<path d="M5.38224 15.7581L15.9131 20.0991C16.3095 20.2628 16.7296 20.3483 17.1544 20.3483H17.1758C18.0706 20.3483 18.9226 19.9875 19.5421 19.3467L20.4654 18.3949C20.6766 18.179 20.9495 18.0627 21.2296 18.0484C21.5097 18.0603 21.7826 18.1766 21.9938 18.3949L22.9171 19.3467C23.5366 19.9875 24.3886 20.3483 25.2834 20.3483H25.3048C25.7296 20.3483 26.1497 20.2628 26.5461 20.0991L35.6173 16.4416C35.9496 16.304 36.1181 15.9195 35.9757 15.5824L35.5176 14.4741C35.3823 14.137 34.9931 13.9804 34.6632 14.118L24.963 18.0342C24.4219 18.2573 23.8807 17.7138 24.1109 17.1726L28.6916 6.16944C28.8293 5.83004 28.6727 5.45029 28.3356 5.30789C28.3356 5.30789 27.0682 4.79523 26.9709 4.79523C26.7122 4.79523 26.4701 4.94713 26.3633 5.19634L21.785 16.2066C21.6782 16.4582 21.4551 16.5911 21.2248 16.6054C20.9946 16.5888 20.7715 16.4582 20.6647 16.2066L17.2422 7.97087C17.0998 7.63859 16.7177 7.4772 16.3807 7.6196L15.2723 8.08242C14.9353 8.22483 14.7786 8.60457 14.9163 8.94397L18.3435 17.175C18.5737 17.7162 18.0326 18.2597 17.4915 18.0366L6.33161 13.4392C6.00171 13.3016 5.61247 13.4582 5.47718 13.7952L5.01911 14.9036C4.8767 15.2407 5.04522 15.6228 5.37749 15.7628L5.38224 15.7581Z" fill="#A2E86A"/>
<path d="M16.8058 24.3784C16.8129 24.7439 16.5091 25.0334 16.1507 25.0334H3.27962C2.94259 25.0334 2.65778 24.7439 2.6649 24.3784L2.66016 23.175C2.66016 22.8095 2.94497 22.52 3.282 22.52H16.1531C16.5115 22.52 16.8153 22.8095 16.8153 23.175L16.8081 24.3784H16.8058Z" fill="#A2E86A"/>
<path d="M38.212 24.3784C38.2167 24.7439 37.9343 25.0334 37.5972 25.0334H24.7262C24.3678 25.0334 24.064 24.7439 24.0711 24.3784L24.064 23.175C24.064 22.8095 24.3654 22.52 24.7262 22.52H37.5972C37.9343 22.52 38.2191 22.8095 38.2191 23.175L38.2143 24.3784H38.212Z" fill="#A2E86A"/>
</svg>
