<svg width="112" height="116" viewBox="0 0 112 116" fill="none" xmlns="http://www.w3.org/2000/svg">
<rect width="110.674" height="115.24" transform="translate(0.663086 0.369873)" fill="#A2E76B"/>
<path d="M29.3596 43.6885L47.9221 51.3404C48.6182 51.6285 49.3624 51.7785 50.1126 51.7785H50.1486C51.727 51.7785 53.2274 51.1423 54.3196 50.0141L55.946 48.3337C56.3181 47.9496 56.7982 47.7455 57.2903 47.7215C57.7825 47.7455 58.2626 47.9496 58.6347 48.3337L60.2611 50.0141C61.3533 51.1423 62.8537 51.7785 64.4321 51.7785H64.4681C65.2182 51.7785 65.9564 51.6285 66.6586 51.3404L82.6465 44.8948C83.2346 44.6488 83.5287 43.9766 83.2766 43.3825L82.4664 41.426C82.2264 40.8318 81.5422 40.5558 80.96 40.8018L63.8679 47.7035C62.9137 48.0996 61.9595 47.1394 62.3676 46.1851L70.4395 26.7885C70.6856 26.1883 70.4035 25.5222 69.8154 25.2701C69.8154 25.2701 67.5828 24.3699 67.4088 24.3699C66.9527 24.3699 66.5266 24.6339 66.3405 25.078L58.2686 44.4807C58.0825 44.9248 57.6864 45.1589 57.2843 45.1829C56.8822 45.1529 56.4861 44.9248 56.3001 44.4807L50.2687 29.9632C50.0166 29.3751 49.3444 29.093 48.7503 29.3451L46.7938 30.1613C46.1997 30.4133 45.9236 31.0795 46.1697 31.6796L52.2071 46.1851C52.6092 47.1394 51.661 48.0936 50.7067 47.7035L31.04 39.6015C30.4579 39.3555 29.7737 39.6376 29.5336 40.2257L28.7234 42.1822C28.4714 42.7763 28.7655 43.4485 29.3536 43.6945L29.3596 43.6885Z" fill="black"/>
<path d="M49.5991 59.0492C49.6111 59.6914 49.077 60.2015 48.4468 60.2015H25.7614C25.1672 60.2015 24.6631 59.6914 24.6751 59.0492L24.6631 56.9307C24.6631 56.2886 25.1612 55.7784 25.7614 55.7784H48.4468C49.077 55.7784 49.6111 56.2886 49.6111 56.9307L49.5991 59.0492Z" fill="black"/>
<path d="M87.3247 59.0492C87.3367 59.6914 86.8326 60.2015 86.2384 60.2015H63.553C62.9228 60.2015 62.3887 59.6914 62.4007 59.0492L62.3887 56.9307C62.3887 56.2886 62.9228 55.7784 63.553 55.7784H86.2384C86.8326 55.7784 87.3367 56.2886 87.3367 56.9307L87.3247 59.0492Z" fill="black"/>
<path d="M82.6404 72.2915L64.078 64.6396C63.3818 64.3516 62.6376 64.2015 61.8874 64.2015H61.8514C60.273 64.2015 58.7727 64.8377 57.6804 65.966L56.054 67.6464C55.6819 68.0305 55.2018 68.2345 54.7097 68.2585C54.2176 68.2345 53.7375 68.0305 53.3654 67.6464L51.739 65.966C50.6467 64.8377 49.1464 64.2015 47.568 64.2015H47.532C46.7818 64.2015 46.0436 64.3516 45.3415 64.6396L29.3536 71.0852C28.7654 71.3312 28.4714 72.0034 28.7234 72.5976L29.5336 74.554C29.7737 75.1482 30.4579 75.4242 31.04 75.1782L48.1321 68.2765C49.0864 67.8804 50.0406 68.8407 49.6325 69.7949L41.5605 89.1916C41.3145 89.7917 41.5965 90.4579 42.1847 90.7099C42.1847 90.7099 44.4172 91.6101 44.5913 91.6101C45.0474 91.6101 45.4735 91.3461 45.6595 90.902L53.7315 71.4993C53.9175 71.0552 54.3136 70.8211 54.7157 70.7971C55.1178 70.8271 55.5139 71.0552 55.6999 71.4993L61.7314 86.0168C61.9835 86.6049 62.6556 86.887 63.2498 86.6349L65.2062 85.8187C65.8004 85.5667 66.0764 84.9005 65.8304 84.3004L59.7929 69.7949C59.3908 68.8407 60.3391 67.8864 61.2933 68.2765L80.96 76.3785C81.5422 76.6245 82.2263 76.3425 82.4664 75.7543L83.2766 73.7978C83.5287 73.2037 83.2346 72.5315 82.6465 72.2855L82.6404 72.2915Z" fill="black"/>
</svg>
