<svg width="60" height="60" viewBox="0 0 60 60" fill="none" xmlns="http://www.w3.org/2000/svg">
<path d="M58.125 48.7497C58.125 49.247 57.9275 49.7239 57.5758 50.0755C57.2242 50.4272 56.7473 50.6247 56.25 50.6247H3.75C3.25272 50.6247 2.77581 50.4272 2.42417 50.0755C2.07254 49.7239 1.875 49.247 1.875 48.7497C1.875 48.2524 2.07254 47.7755 2.42417 47.4239C2.77581 47.0723 3.25272 46.8747 3.75 46.8747H56.25C56.7473 46.8747 57.2242 47.0723 57.5758 47.4239C57.9275 47.7755 58.125 48.2524 58.125 48.7497ZM3.82031 23.0107C3.70879 22.6174 3.72881 22.1986 3.87731 21.8178C4.02582 21.437 4.29468 21.1152 4.64297 20.9013L29.018 5.90128C29.3133 5.71968 29.6533 5.62354 30 5.62354C30.3467 5.62354 30.6867 5.71968 30.982 5.90128L55.357 20.9013C55.7054 21.1149 55.9745 21.4365 56.1233 21.8171C56.272 22.1978 56.2924 22.6166 56.1812 23.0098C56.07 23.4031 55.8334 23.7492 55.5073 23.9956C55.1813 24.242 54.7837 24.3751 54.375 24.3747H48.75V39.3747H52.5C52.9973 39.3747 53.4742 39.5723 53.8258 39.9239C54.1775 40.2755 54.375 40.7524 54.375 41.2497C54.375 41.747 54.1775 42.2239 53.8258 42.5755C53.4742 42.9272 52.9973 43.1247 52.5 43.1247H7.5C7.00272 43.1247 6.52581 42.9272 6.17417 42.5755C5.82254 42.2239 5.625 41.747 5.625 41.2497C5.625 40.7524 5.82254 40.2755 6.17417 39.9239C6.52581 39.5723 7.00272 39.3747 7.5 39.3747H11.25V24.3747H5.625C5.21669 24.3749 4.8195 24.2417 4.49377 23.9955C4.16804 23.7493 3.93158 23.4035 3.82031 23.0107ZM33.75 37.4997C33.75 37.997 33.9475 38.4739 34.2992 38.8255C34.6508 39.1772 35.1277 39.3747 35.625 39.3747C36.1223 39.3747 36.5992 39.1772 36.9508 38.8255C37.3025 38.4739 37.5 37.997 37.5 37.4997V26.2497C37.5 25.7524 37.3025 25.2755 36.9508 24.9239C36.5992 24.5723 36.1223 24.3747 35.625 24.3747C35.1277 24.3747 34.6508 24.5723 34.2992 24.9239C33.9475 25.2755 33.75 25.7524 33.75 26.2497V37.4997ZM22.5 37.4997C22.5 37.997 22.6975 38.4739 23.0492 38.8255C23.4008 39.1772 23.8777 39.3747 24.375 39.3747C24.8723 39.3747 25.3492 39.1772 25.7008 38.8255C26.0525 38.4739 26.25 37.997 26.25 37.4997V26.2497C26.25 25.7524 26.0525 25.2755 25.7008 24.9239C25.3492 24.5723 24.8723 24.3747 24.375 24.3747C23.8777 24.3747 23.4008 24.5723 23.0492 24.9239C22.6975 25.2755 22.5 25.7524 22.5 26.2497V37.4997Z" fill="#B2E77B"/>
</svg>
