<svg width="60" height="60" viewBox="0 0 60 60" fill="none" xmlns="http://www.w3.org/2000/svg">
<path d="M33.6047 4.18321C33.3735 3.99104 33.0996 3.85726 32.8059 3.79315C32.5122 3.72903 32.2075 3.73646 31.9173 3.81482C31.6271 3.89317 31.3599 4.04014 31.1384 4.24335C30.9169 4.44656 30.7475 4.70004 30.6445 4.98243L25.4883 19.141L19.8258 13.6543C19.6356 13.4699 19.4085 13.3278 19.1595 13.2375C18.9104 13.1472 18.6451 13.1107 18.3809 13.1304C18.1167 13.1501 17.8597 13.2256 17.6268 13.3519C17.3939 13.4781 17.1904 13.6523 17.0297 13.8629C11.9531 20.5145 9.375 27.2059 9.375 33.7496C9.375 39.2197 11.548 44.4658 15.4159 48.3337C19.2839 52.2016 24.5299 54.3746 30 54.3746C35.4701 54.3746 40.7161 52.2016 44.5841 48.3337C48.452 44.4658 50.625 39.2197 50.625 33.7496C50.625 19.816 38.7211 8.43712 33.6047 4.18321ZM43.0992 35.9387C42.613 38.6544 41.3065 41.156 39.3554 43.1066C37.4044 45.0572 34.9025 46.3632 32.1867 46.8488C32.0838 46.8665 31.9795 46.8751 31.875 46.8746C31.4047 46.8745 30.9516 46.6976 30.6055 46.3791C30.2595 46.0605 30.0459 45.6236 30.0069 45.1548C29.968 44.6861 30.1066 44.2199 30.3953 43.8486C30.6841 43.4773 31.1018 43.2281 31.5656 43.1504C35.4492 42.4965 38.7445 39.2012 39.4031 35.3106C39.4864 34.8201 39.7611 34.3828 40.1668 34.0949C40.5725 33.8071 41.076 33.6921 41.5664 33.7754C42.0569 33.8587 42.4941 34.1334 42.782 34.5391C43.0699 34.9448 43.1849 35.4482 43.1016 35.9387H43.0992Z" fill="#B2E77B"/>
</svg>
