<svg width="60" height="60" viewBox="0 0 60 60" fill="none" xmlns="http://www.w3.org/2000/svg">
<path d="M54.375 15H48.75V13.125C48.75 12.1304 48.3549 11.1766 47.6516 10.4733C46.9484 9.77009 45.9946 9.375 45 9.375H15C14.0054 9.375 13.0516 9.77009 12.3483 10.4733C11.6451 11.1766 11.25 12.1304 11.25 13.125V15H5.625C4.63044 15 3.67661 15.3951 2.97335 16.0984C2.27009 16.8016 1.875 17.7554 1.875 18.75V22.5C1.875 24.9864 2.86272 27.371 4.62087 29.1291C5.49142 29.9997 6.52492 30.6902 7.66234 31.1614C8.79977 31.6325 10.0189 31.875 11.25 31.875H12.1055C13.21 35.3752 15.3159 38.475 18.1629 40.7914C21.0099 43.1078 24.4733 44.5391 28.125 44.9086V50.625H22.5C22.0027 50.625 21.5258 50.8225 21.1742 51.1742C20.8225 51.5258 20.625 52.0027 20.625 52.5C20.625 52.9973 20.8225 53.4742 21.1742 53.8258C21.5258 54.1775 22.0027 54.375 22.5 54.375H37.5C37.9973 54.375 38.4742 54.1775 38.8258 53.8258C39.1775 53.4742 39.375 52.9973 39.375 52.5C39.375 52.0027 39.1775 51.5258 38.8258 51.1742C38.4742 50.8225 37.9973 50.625 37.5 50.625H31.875V44.9016C39.3609 44.1445 45.5719 38.8922 47.8312 31.875H48.75C51.2364 31.875 53.621 30.8873 55.3791 29.1291C57.1373 27.371 58.125 24.9864 58.125 22.5V18.75C58.125 17.7554 57.7299 16.8016 57.0266 16.0984C56.3234 15.3951 55.3696 15 54.375 15ZM11.25 28.125C9.75816 28.125 8.32742 27.5324 7.27252 26.4775C6.21763 25.4226 5.625 23.9918 5.625 22.5V18.75H11.25V26.25C11.25 26.875 11.2805 27.5 11.3414 28.125H11.25ZM54.375 22.5C54.375 23.9918 53.7824 25.4226 52.7275 26.4775C51.6726 27.5324 50.2418 28.125 48.75 28.125H48.6328C48.7098 27.4323 48.7489 26.736 48.75 26.0391V18.75H54.375V22.5Z" fill="#B2E77B"/>
</svg>
