<svg width="502" height="65" viewBox="0 0 502 65" fill="none" xmlns="http://www.w3.org/2000/svg">
<path d="M168.594 47.3983L150.031 39.7465C149.335 39.4584 148.591 39.3083 147.841 39.3083H147.805C146.226 39.3083 144.726 39.9445 143.634 41.0728L142.007 42.7532C141.635 43.1373 141.155 43.3413 140.663 43.3653C140.171 43.3413 139.691 43.1373 139.319 42.7532L137.692 41.0728C136.6 39.9445 135.099 39.3083 133.521 39.3083H133.485C132.735 39.3083 131.997 39.4584 131.295 39.7465L115.307 46.192C114.719 46.4381 114.425 47.1102 114.677 47.7044L115.487 49.6608C115.727 50.255 116.411 50.5311 116.993 50.285L134.085 43.3833C135.039 42.9872 135.994 43.9475 135.586 44.9017L127.514 64.2984C127.268 64.8985 127.55 65.5647 128.138 65.8167C128.138 65.8167 130.37 66.717 130.544 66.717C131.001 66.717 131.427 66.4529 131.613 66.0088L139.685 46.6061C139.871 46.162 140.267 45.9279 140.669 45.9039C141.071 45.9339 141.467 46.162 141.653 46.6061L147.685 61.1236C147.937 61.7118 148.609 61.9938 149.203 61.7418L151.159 60.9256C151.753 60.6735 152.03 60.0073 151.784 59.4072L145.746 44.9017C145.344 43.9475 146.292 42.9932 147.246 43.3833L166.913 51.4853C167.495 51.7313 168.179 51.4493 168.42 50.8611L169.23 48.9047C169.482 48.3105 169.188 47.6384 168.6 47.3923L168.594 47.3983Z" fill="#00342A"/>
<path d="M115.301 19.3415L133.863 26.9933C134.56 27.2814 135.304 27.4314 136.054 27.4314H136.09C137.668 27.4314 139.169 26.7953 140.261 25.667L141.887 23.9866C142.26 23.6025 142.74 23.3985 143.232 23.3745C143.724 23.3985 144.204 23.6025 144.576 23.9866L146.202 25.667C147.295 26.7953 148.795 27.4314 150.373 27.4314H150.409C151.16 27.4314 151.898 27.2814 152.6 26.9933L168.588 20.5478C169.176 20.3017 169.47 19.6296 169.218 19.0354L168.408 17.0789C168.168 16.4848 167.484 16.2087 166.901 16.4548L149.809 23.3565C148.855 23.7526 147.901 22.7923 148.309 21.8381L156.381 2.44141C156.627 1.84127 156.345 1.17511 155.757 0.923044C155.757 0.923044 153.524 0.0228271 153.35 0.0228271C152.894 0.0228271 152.468 0.286891 152.282 0.730998L144.21 20.1337C144.024 20.5778 143.628 20.8118 143.226 20.8358C142.824 20.8058 142.428 20.5778 142.242 20.1337L136.21 5.61618C135.958 5.02803 135.286 4.74597 134.692 4.99803L132.735 5.81423C132.141 6.06629 131.865 6.73245 132.111 7.33259L138.149 21.8381C138.551 22.7923 137.602 23.7466 136.648 23.3565L116.981 15.2545C116.399 15.0084 115.715 15.2905 115.475 15.8787L114.665 17.8351C114.413 18.4293 114.707 19.1014 115.295 19.3475L115.301 19.3415Z" fill="#00342A"/>
<path d="M135.436 34.5431C135.448 35.1853 134.914 35.6954 134.284 35.6954H111.598C111.004 35.6954 110.5 35.1853 110.512 34.5431L110.5 32.4246C110.5 31.7825 110.998 31.2723 111.598 31.2723H134.284C134.914 31.2723 135.448 31.7825 135.448 32.4246L135.436 34.5431Z" fill="#00342A"/>
<path d="M173.162 34.5431C173.174 35.1853 172.669 35.6954 172.075 35.6954H149.39C148.76 35.6954 148.226 35.1853 148.238 34.5431L148.226 32.4246C148.226 31.7825 148.76 31.2723 149.39 31.2723H172.075C172.669 31.2723 173.174 31.7825 173.174 32.4246L173.162 34.5431Z" fill="#00342A"/>
<path d="M194.185 19.2064H206.368C209.59 19.2064 211.997 20.1367 213.623 21.8051C215.178 23.3954 216.108 25.568 216.108 28.1306C216.108 33.3699 212.651 36.8987 206.83 36.8987H200V46.9511H194.179V19.2004L194.185 19.2064ZM200.006 32.3256H205.828C208.774 32.3256 210.329 30.6932 210.329 28.1726C210.329 25.652 208.696 24.0976 205.906 24.0976H200.006V32.3256Z" fill="#00342A"/>
<path d="M222.595 30.2311H222.709C223.909 27.9806 225.271 26.8163 227.6 26.8163C228.182 26.8163 228.53 26.8523 228.842 26.9723V31.5934H228.728C225.271 31.2453 222.793 33.0698 222.793 37.2588V46.9631H217.518V27.0563H222.601V30.2371L222.595 30.2311Z" fill="#00342A"/>
<path d="M230.163 19.2064H235.438V23.9416H230.163V19.2064ZM230.163 27.0503H235.438V46.9571H230.163V27.0503Z" fill="#00342A"/>
<path d="M237.887 27.0504H242.97V29.727H243.084C244.17 27.9026 246.109 26.5043 248.869 26.5043C251.39 26.5043 253.412 27.9026 254.379 29.9971H254.457C255.813 27.8246 257.914 26.5043 260.434 26.5043C264.623 26.5043 266.994 29.2229 266.994 33.568V46.9572H261.718V34.4622C261.718 32.2116 260.59 31.0474 258.652 31.0474C256.437 31.0474 255.081 32.7518 255.081 35.3924V46.9572H249.806V34.4622C249.806 32.2116 248.677 31.0474 246.739 31.0474C244.602 31.0474 243.168 32.7518 243.168 35.3924V46.9572H237.893V27.0504H237.887Z" fill="#00342A"/>
<path d="M268.314 36.9828C268.314 31.0834 272.311 26.5043 278.133 26.5043C284.536 26.5043 287.951 31.3954 287.951 38.4952H273.512C273.902 41.5619 275.606 43.4644 278.595 43.4644C280.653 43.4644 281.854 42.5341 282.436 41.0218H287.639C286.901 44.5506 283.756 47.5393 278.637 47.5393C272.041 47.5393 268.314 42.9182 268.314 36.9828ZM273.59 34.8463H282.436C282.28 32.3257 280.611 30.5793 278.205 30.5793C275.408 30.5793 274.052 32.2477 273.59 34.8463Z" fill="#00342A"/>
<path d="M293.347 19.2064H299.246L304.137 35.2723C304.683 37.0967 305.338 39.6954 305.338 39.6954H305.416C305.416 39.6954 306.076 37.0547 306.616 35.2723L311.465 19.2064H317.172L307.822 46.9571H302.697L293.347 19.2064Z" fill="#00342A"/>
<path d="M327.572 44.7427H327.494C326.486 46.255 325.052 47.4193 321.637 47.4193C317.562 47.4193 314.693 45.2828 314.693 41.3278C314.693 36.9408 318.264 35.5424 322.687 34.9243C325.988 34.4562 327.5 34.1861 327.5 32.6737C327.5 31.2394 326.372 30.3092 324.164 30.3092C321.679 30.3092 320.479 31.2034 320.323 33.1058H315.63C315.786 29.613 318.384 26.5463 324.206 26.5463C330.027 26.5463 332.59 29.2229 332.59 33.88V44.0105C332.59 45.5228 332.824 46.4171 333.286 46.7651V46.9572H328.203C327.891 46.5671 327.698 45.6369 327.584 44.7427H327.572ZM327.614 39.9295V36.9408C326.684 37.4869 325.25 37.793 323.93 38.1051C321.175 38.7232 319.819 39.3473 319.819 41.2078C319.819 43.0682 321.061 43.7284 322.921 43.7284C325.946 43.7284 327.614 41.868 327.614 39.9235V39.9295Z" fill="#00342A"/>
<path d="M347.521 46.9572V44.6287H347.407C346.051 46.4531 344.496 47.5034 341.7 47.5034C337.277 47.5034 334.792 44.6707 334.792 40.3256V27.0504H340.031V39.4314C340.031 41.76 341.082 43.0383 343.332 43.0383C345.817 43.0383 347.329 41.1778 347.329 38.5372V27.0504H352.604V46.9572H347.521Z" fill="#00342A"/>
<path d="M355.132 19.2064H360.407V46.9571H355.132V19.2064Z" fill="#00342A"/>
<path d="M361.763 27.0504H364.517V20.8389H369.679V27.0504H373.093V30.5432H369.679V41.0998C369.679 42.5761 370.495 43.0802 371.659 43.0802C372.319 43.0802 373.213 43.0442 373.213 43.0442V46.9272C373.213 46.9272 372.013 47.0052 369.913 47.0052C367.35 47.0052 364.517 45.9969 364.517 42.234V30.5552H361.763V27.0624V27.0504Z" fill="#00342A"/>
<path d="M373.796 40.5115H378.687C379.035 42.8041 380.668 43.8123 383.032 43.8123C385.397 43.8123 386.681 42.9181 386.681 41.5198C386.681 39.6173 384.16 39.4253 381.442 38.8791C377.871 38.183 374.378 37.2108 374.378 32.8657C374.378 28.5207 377.949 26.4982 382.492 26.4982C387.731 26.4982 390.642 29.0968 391.032 33.0938H386.261C386.027 30.9572 384.671 30.1831 382.42 30.1831C380.361 30.1831 379.005 30.9572 379.005 32.3976C379.005 34.108 381.646 34.258 384.479 34.8402C387.815 35.5363 391.5 36.4726 391.5 41.1297C391.5 45.1267 388.085 47.5332 383.116 47.5332C377.331 47.5332 374.114 44.7366 373.802 40.5115H373.796Z" fill="#00342A"/>
</svg>
