<svg width="64" height="65" viewBox="0 0 64 65" fill="none" xmlns="http://www.w3.org/2000/svg">
<path d="M58.7567 47.3983L40.1942 39.7465C39.498 39.4584 38.7538 39.3083 38.0036 39.3083H37.9676C36.3893 39.3083 34.8889 39.9445 33.7966 41.0728L32.1702 42.7532C31.7981 43.1373 31.318 43.3413 30.8259 43.3653C30.3338 43.3413 29.8537 43.1373 29.4816 42.7532L27.8552 41.0728C26.7629 39.9445 25.2626 39.3083 23.6842 39.3083H23.6482C22.898 39.3083 22.1598 39.4584 21.4577 39.7465L5.4698 46.192C4.88165 46.4381 4.58759 47.1102 4.83965 47.7044L5.64985 49.6608C5.88991 50.255 6.57406 50.5311 7.1562 50.285L24.2483 43.3833C25.2026 42.9872 26.1568 43.9475 25.7487 44.9017L17.6767 64.2984C17.4307 64.8985 17.7128 65.5647 18.3009 65.8167C18.3009 65.8167 20.5334 66.717 20.7075 66.717C21.1636 66.717 21.5897 66.4529 21.7757 66.0088L29.8477 46.6061C30.0337 46.162 30.4298 45.9279 30.8319 45.9039C31.234 45.9339 31.6301 46.162 31.8162 46.6061L37.8476 61.1236C38.0997 61.7118 38.7718 61.9938 39.366 61.7418L41.3224 60.9256C41.9166 60.6735 42.1927 60.0073 41.9466 59.4072L35.9091 44.9017C35.507 43.9475 36.4553 42.9932 37.4095 43.3833L57.0762 51.4853C57.6584 51.7313 58.3426 51.4493 58.5826 50.8611L59.3928 48.9047C59.6449 48.3105 59.3508 47.6384 58.7627 47.3923L58.7567 47.3983Z" fill="#00342A"/>
<path d="M5.46408 19.3415L24.0266 26.9933C24.7227 27.2814 25.4669 27.4314 26.2171 27.4314H26.2531C27.8315 27.4314 29.3319 26.7953 30.4241 25.667L32.0505 23.9866C32.4226 23.6025 32.9027 23.3985 33.3948 23.3745C33.8869 23.3985 34.3671 23.6025 34.7391 23.9866L36.3655 25.667C37.4578 26.7953 38.9582 27.4314 40.5365 27.4314H40.5726C41.3227 27.4314 42.0609 27.2814 42.7631 26.9933L58.7509 20.5478C59.3391 20.3017 59.6332 19.6296 59.3811 19.0354L58.5709 17.0789C58.3309 16.4848 57.6467 16.2087 57.0645 16.4548L39.9724 23.3565C39.0182 23.7526 38.0639 22.7923 38.472 21.8381L46.544 2.44141C46.7901 1.84127 46.508 1.17511 45.9198 0.923044C45.9198 0.923044 43.6873 0.0228271 43.5133 0.0228271C43.0572 0.0228271 42.6311 0.286891 42.445 0.730998L34.3731 20.1337C34.187 20.5778 33.7909 20.8118 33.3888 20.8358C32.9867 20.8058 32.5906 20.5778 32.4046 20.1337L26.3731 5.61618C26.1211 5.02803 25.4489 4.74597 24.8548 4.99803L22.8983 5.81423C22.3042 6.06629 22.0281 6.73245 22.2741 7.33259L28.3116 21.8381C28.7137 22.7923 27.7655 23.7466 26.8112 23.3565L7.1445 15.2545C6.56236 15.0084 5.87819 15.2905 5.63813 15.8787L4.82793 17.8351C4.57587 18.4293 4.86995 19.1014 5.45809 19.3475L5.46408 19.3415Z" fill="#00342A"/>
<path d="M25.5991 34.5431C25.6111 35.1853 25.077 35.6954 24.4468 35.6954H1.76136C1.16722 35.6954 0.663098 35.1853 0.675101 34.5431L0.663086 32.4246C0.663086 31.7825 1.16122 31.2723 1.76136 31.2723H24.4468C25.077 31.2723 25.6111 31.7825 25.6111 32.4246L25.5991 34.5431Z" fill="#00342A"/>
<path d="M63.3247 34.5431C63.3367 35.1853 62.8326 35.6954 62.2384 35.6954H39.553C38.9228 35.6954 38.3887 35.1853 38.4007 34.5431L38.3887 32.4246C38.3887 31.7825 38.9228 31.2723 39.553 31.2723H62.2384C62.8326 31.2723 63.3367 31.7825 63.3367 32.4246L63.3247 34.5431Z" fill="#00342A"/>
</svg>
