<svg width="158" height="48" viewBox="0 0 158 48" fill="none" xmlns="http://www.w3.org/2000/svg">
<g clip-path="url(#clip0_520_148171)">
<path d="M47.5527 16.0832H54.4665C56.2941 16.0832 57.6588 16.6125 58.5844 17.5595C59.465 18.4614 59.9942 19.6955 59.9942 21.1481C59.9942 24.1196 58.0338 26.1251 54.7323 26.1251H50.8565V31.8285H47.5527V16.0856V16.0832ZM50.8542 23.5262H54.158C55.8312 23.5262 56.7118 22.6006 56.7118 21.1694C56.7118 19.7383 55.7861 18.8577 54.2007 18.8577H50.8542V23.5262Z" fill="#00342A"/>
<path d="M63.6718 22.3372H63.7383C64.4218 21.0603 65.1908 20.4005 66.5128 20.4005C66.8427 20.4005 67.0421 20.4218 67.2177 20.4883V23.1085H67.1512C65.1908 22.9115 63.7833 23.9464 63.7833 26.3245V31.8285H60.7881V20.5334H63.6718V22.3395V22.3372Z" fill="#00342A"/>
<path d="M67.9648 16.0832H70.9601V18.7699H67.9648V16.0832ZM67.9648 20.531H70.9601V31.8261H67.9648V20.531Z" fill="#00342A"/>
<path d="M72.3465 20.531H75.2303V22.05H75.2967C75.9138 21.0151 77.0151 20.2224 78.5768 20.2224C80.008 20.2224 81.152 21.0151 81.7026 22.2042H81.7477C82.519 20.97 83.7081 20.2224 85.1393 20.2224C87.5175 20.2224 88.8608 21.7628 88.8608 24.2288V31.8261H85.8656V24.7367C85.8656 23.4598 85.2271 22.7999 84.1258 22.7999C82.8703 22.7999 82.0989 23.7683 82.0989 25.2659V31.8285H79.1037V24.739C79.1037 23.4621 78.4652 22.8023 77.364 22.8023C76.1535 22.8023 75.3371 23.7707 75.3371 25.2683V31.8308H72.3418V20.5357L72.3465 20.531Z" fill="#00342A"/>
<path d="M89.6078 26.1678C89.6078 22.8213 91.8768 20.2224 95.1783 20.2224C98.812 20.2224 100.749 22.9969 100.749 27.027H92.558C92.7787 28.7667 93.7471 29.8443 95.4417 29.8443C96.6094 29.8443 97.2906 29.315 97.6205 28.4582H100.571C100.153 30.4614 98.3682 32.1584 95.4631 32.1584C91.7202 32.1584 89.6055 29.5381 89.6055 26.1702L89.6078 26.1678ZM92.6031 24.9574H97.6229C97.5351 23.5262 96.5881 22.5341 95.2234 22.5341C93.6379 22.5341 92.8666 23.4811 92.6031 24.9574Z" fill="#00342A"/>
<path d="M103.811 16.0832H107.157L109.932 25.1995C110.24 26.2343 110.615 27.7106 110.615 27.7106H110.66C110.66 27.7106 111.035 26.213 111.344 25.1995L114.097 16.0832H117.334L112.027 31.8261H109.12L103.813 16.0832H103.811Z" fill="#00342A"/>
<path d="M123.232 30.5729H123.187C122.615 31.4321 121.801 32.0919 119.862 32.0919C117.55 32.0919 115.92 30.8815 115.92 28.6338C115.92 26.1465 117.947 25.3538 120.456 25.0001C122.328 24.7367 123.185 24.5824 123.185 23.7232C123.185 22.9091 122.547 22.3799 121.291 22.3799C119.881 22.3799 119.2 22.8854 119.112 23.9653H116.447C116.535 21.9835 118.011 20.2438 121.312 20.2438C124.614 20.2438 126.069 21.7628 126.069 24.4044V30.1505C126.069 31.0096 126.202 31.5152 126.465 31.7145V31.8237H123.581C123.406 31.603 123.294 31.0761 123.23 30.5682L123.232 30.5729ZM123.254 27.8411V26.1465C122.725 26.455 121.91 26.6307 121.163 26.8063C119.599 27.1576 118.83 27.5112 118.83 28.5674C118.83 29.6235 119.535 29.9986 120.591 29.9986C122.309 29.9986 123.256 28.9424 123.256 27.8411H123.254Z" fill="#00342A"/>
<path d="M134.549 31.8261V30.5041H134.482C133.711 31.5389 132.83 32.1346 131.245 32.1346C128.734 32.1346 127.326 30.5278 127.326 28.0618V20.5309H130.298V27.5539C130.298 28.8759 130.891 29.6022 132.17 29.6022C133.58 29.6022 134.439 28.546 134.439 27.0484V20.5309H137.435V31.8261H134.551H134.549Z" fill="#00342A"/>
<path d="M138.865 16.0832H141.86V31.8261H138.865V16.0832Z" fill="#00342A"/>
<path d="M142.63 20.531H144.194V17.0089H147.123V20.531H149.06V22.5128H147.123V28.501C147.123 29.3388 147.586 29.6236 148.246 29.6236C148.621 29.6236 149.126 29.6022 149.126 29.6022V31.8048C149.126 31.8048 148.443 31.8499 147.254 31.8499C145.801 31.8499 144.192 31.2779 144.192 29.1418V22.5152H142.628V20.5334L142.63 20.531Z" fill="#00342A"/>
<path d="M149.456 28.171H152.231C152.43 29.4693 153.353 30.0436 154.697 30.0436C156.04 30.0436 156.766 29.5381 156.766 28.7454C156.766 27.6655 155.335 27.5563 153.795 27.2477C151.768 26.8514 149.788 26.3007 149.788 23.8348C149.788 21.3688 151.815 20.2248 154.39 20.2248C157.362 20.2248 159.014 21.7011 159.235 23.9677H156.526C156.394 22.7572 155.625 22.3158 154.348 22.3158C153.18 22.3158 152.411 22.7572 152.411 23.5713C152.411 24.5397 153.909 24.6275 155.515 24.9574C157.409 25.3538 159.5 25.883 159.5 28.5247C159.5 30.7936 157.564 32.1584 154.744 32.1584C151.464 32.1584 149.636 30.5729 149.458 28.1734L149.456 28.171Z" fill="#00342A"/>
<path d="M33.1199 31.6719L22.589 27.3309C22.1926 27.1671 21.7725 27.0817 21.3477 27.0817H21.3263C20.4315 27.0817 19.5795 27.4424 18.96 28.0832L18.0368 29.035C17.8255 29.251 17.5526 29.3673 17.2725 29.3815C16.9925 29.3696 16.7195 29.2533 16.5083 29.035L15.585 28.0832C14.9655 27.4424 14.1135 27.0817 13.2187 27.0817H13.1973C12.7725 27.0817 12.3524 27.1671 11.956 27.3309L2.88482 30.9883C2.55254 31.126 2.38403 31.5105 2.52643 31.8475L2.98451 32.9559C3.11979 33.2929 3.50903 33.4496 3.83894 33.3119L13.5391 29.3958C14.0803 29.1727 14.6214 29.7162 14.3912 30.2573L9.81047 41.2605C9.67281 41.5999 9.82946 41.9796 10.1665 42.1221C10.1665 42.1221 11.4339 42.6347 11.5312 42.6347C11.7899 42.6347 12.032 42.4828 12.1388 42.2336L16.7171 31.2233C16.8239 30.9717 17.047 30.8388 17.2773 30.8245C17.5075 30.8412 17.7306 30.9717 17.8374 31.2233L21.2599 39.4591C21.4023 39.7913 21.7844 39.9527 22.1214 39.8103L23.2298 39.3475C23.5668 39.2051 23.7235 38.8254 23.5858 38.486L20.1586 30.2549C19.9284 29.7138 20.4695 29.1703 21.0107 29.3934L32.1705 33.9907C32.5004 34.1284 32.8897 33.9717 33.0249 33.6347L33.483 32.5263C33.6254 32.1893 33.4569 31.8071 33.1246 31.6671L33.1199 31.6719Z" fill="#00342A"/>
<path d="M2.88175 15.7581L13.4126 20.0991C13.809 20.2628 14.2291 20.3483 14.6539 20.3483H14.6753C15.5701 20.3483 16.4221 19.9875 17.0416 19.3467L17.9649 18.3949C18.1761 18.179 18.449 18.0627 18.7291 18.0484C19.0092 18.0603 19.2821 18.1766 19.4933 18.3949L20.4166 19.3467C21.0361 19.9875 21.8881 20.3483 22.7829 20.3483H22.8043C23.2291 20.3483 23.6492 20.2628 24.0456 20.0991L33.1168 16.4416C33.4491 16.304 33.6176 15.9195 33.4752 15.5824L33.0171 14.4741C32.8818 14.137 32.4926 13.9804 32.1627 14.118L22.4625 18.0342C21.9214 18.2573 21.3802 17.7138 21.6104 17.1726L26.1912 6.16944C26.3288 5.83004 26.1722 5.45029 25.8351 5.30789C25.8351 5.30789 24.5677 4.79523 24.4704 4.79523C24.2117 4.79523 23.9696 4.94713 23.8628 5.19634L19.2845 16.2066C19.1777 16.4582 18.9546 16.5911 18.7244 16.6054C18.4941 16.5888 18.271 16.4582 18.1642 16.2066L14.7418 7.97087C14.5994 7.63859 14.2172 7.4772 13.8802 7.6196L12.7718 8.08242C12.4348 8.22483 12.2781 8.60457 12.4158 8.94397L15.843 17.175C16.0733 17.7162 15.5321 18.2597 14.991 18.0366L3.83112 13.4392C3.50122 13.3016 3.11198 13.4582 2.97669 13.7952L2.51862 14.9036C2.37621 15.2407 2.54473 15.6228 2.87701 15.7628L2.88175 15.7581Z" fill="#00342A"/>
<path d="M14.3058 24.3784C14.3129 24.7439 14.0091 25.0334 13.6507 25.0334H0.77962C0.442594 25.0334 0.157784 24.7439 0.164904 24.3784L0.160156 23.175C0.160156 22.8095 0.44497 22.52 0.781996 22.52H13.6531C14.0115 22.52 14.3153 22.8095 14.3153 23.175L14.3081 24.3784H14.3058Z" fill="#00342A"/>
<path d="M35.7124 24.3784C35.7172 24.7439 35.4348 25.0334 35.0977 25.0334H22.2266C21.8683 25.0334 21.5645 24.7439 21.5716 24.3784L21.5645 23.175C21.5645 22.8095 21.8659 22.52 22.2266 22.52H35.0977C35.4348 22.52 35.7196 22.8095 35.7196 23.175L35.7148 24.3784H35.7124Z" fill="#00342A"/>
</g>
<defs>
<clipPath id="clip0_520_148171">
<rect width="157.5" height="48" fill="white" transform="translate(0.5)"/>
</clipPath>
</defs>
</svg>
