<svg width="158" height="48" viewBox="0 0 158 48" fill="none" xmlns="http://www.w3.org/2000/svg">
<g clip-path="url(#clip0_520_148173)">
<path d="M47.0527 16.0832H53.9665C55.7941 16.0832 57.1588 16.6125 58.0844 17.5595C58.965 18.4614 59.4942 19.6955 59.4942 21.1481C59.4942 24.1196 57.5338 26.1251 54.2323 26.1251H50.3565V31.8285H47.0527V16.0856V16.0832ZM50.3542 23.5262H53.658C55.3312 23.5262 56.2118 22.6006 56.2118 21.1694C56.2118 19.7383 55.2861 18.8577 53.7007 18.8577H50.3542V23.5262Z" fill="#A2E86A"/>
<path d="M63.1718 22.3372H63.2383C63.9218 21.0603 64.6908 20.4005 66.0128 20.4005C66.3427 20.4005 66.5421 20.4218 66.7177 20.4883V23.1085H66.6512C64.6908 22.9115 63.2833 23.9464 63.2833 26.3245V31.8285H60.2881V20.5334H63.1718V22.3395V22.3372Z" fill="#A2E86A"/>
<path d="M67.4648 16.0832H70.4601V18.7699H67.4648V16.0832ZM67.4648 20.531H70.4601V31.8261H67.4648V20.531Z" fill="#A2E86A"/>
<path d="M71.8465 20.531H74.7303V22.05H74.7967C75.4138 21.0151 76.5151 20.2224 78.0768 20.2224C79.508 20.2224 80.652 21.0151 81.2026 22.2042H81.2477C82.019 20.97 83.2081 20.2224 84.6393 20.2224C87.0175 20.2224 88.3608 21.7628 88.3608 24.2288V31.8261H85.3656V24.7367C85.3656 23.4598 84.7271 22.7999 83.6258 22.7999C82.3703 22.7999 81.5989 23.7683 81.5989 25.2659V31.8285H78.6037V24.739C78.6037 23.4621 77.9652 22.8023 76.864 22.8023C75.6535 22.8023 74.8371 23.7707 74.8371 25.2683V31.8308H71.8418V20.5357L71.8465 20.531Z" fill="#A2E86A"/>
<path d="M89.1078 26.1678C89.1078 22.8213 91.3768 20.2224 94.6783 20.2224C98.312 20.2224 100.249 22.9969 100.249 27.027H92.058C92.2787 28.7667 93.2471 29.8443 94.9417 29.8443C96.1094 29.8443 96.7906 29.315 97.1205 28.4582H100.071C99.653 30.4614 97.8682 32.1584 94.9631 32.1584C91.2202 32.1584 89.1055 29.5381 89.1055 26.1702L89.1078 26.1678ZM92.1031 24.9574H97.1229C97.0351 23.5262 96.0881 22.5341 94.7234 22.5341C93.1379 22.5341 92.3666 23.4811 92.1031 24.9574Z" fill="#A2E86A"/>
<path d="M103.311 16.0832H106.657L109.432 25.1995C109.74 26.2343 110.115 27.7106 110.115 27.7106H110.16C110.16 27.7106 110.535 26.213 110.844 25.1995L113.597 16.0832H116.834L111.527 31.8261H108.62L103.313 16.0832H103.311Z" fill="#A2E86A"/>
<path d="M122.732 30.5729H122.687C122.115 31.4321 121.301 32.0919 119.362 32.0919C117.05 32.0919 115.42 30.8815 115.42 28.6338C115.42 26.1465 117.447 25.3538 119.956 25.0001C121.828 24.7367 122.685 24.5824 122.685 23.7232C122.685 22.9091 122.047 22.3799 120.791 22.3799C119.381 22.3799 118.7 22.8854 118.612 23.9653H115.947C116.035 21.9835 117.511 20.2438 120.812 20.2438C124.114 20.2438 125.569 21.7628 125.569 24.4044V30.1505C125.569 31.0096 125.702 31.5152 125.965 31.7145V31.8237H123.081C122.906 31.603 122.794 31.0761 122.73 30.5682L122.732 30.5729ZM122.754 27.8411V26.1465C122.225 26.455 121.41 26.6307 120.663 26.8063C119.099 27.1576 118.33 27.5112 118.33 28.5674C118.33 29.6235 119.035 29.9986 120.091 29.9986C121.809 29.9986 122.756 28.9424 122.756 27.8411H122.754Z" fill="#A2E86A"/>
<path d="M134.049 31.8261V30.5041H133.982C133.211 31.5389 132.33 32.1346 130.745 32.1346C128.234 32.1346 126.826 30.5278 126.826 28.0618V20.5309H129.798V27.5539C129.798 28.8759 130.391 29.6022 131.67 29.6022C133.08 29.6022 133.939 28.546 133.939 27.0484V20.5309H136.935V31.8261H134.051H134.049Z" fill="#A2E86A"/>
<path d="M138.365 16.0832H141.36V31.8261H138.365V16.0832Z" fill="#A2E86A"/>
<path d="M142.13 20.531H143.694V17.0089H146.623V20.531H148.56V22.5128H146.623V28.501C146.623 29.3388 147.086 29.6236 147.746 29.6236C148.121 29.6236 148.626 29.6022 148.626 29.6022V31.8048C148.626 31.8048 147.943 31.8499 146.754 31.8499C145.301 31.8499 143.692 31.2779 143.692 29.1418V22.5152H142.128V20.5334L142.13 20.531Z" fill="#A2E86A"/>
<path d="M148.956 28.171H151.731C151.93 29.4693 152.853 30.0436 154.197 30.0436C155.54 30.0436 156.266 29.5381 156.266 28.7454C156.266 27.6655 154.835 27.5563 153.295 27.2477C151.268 26.8514 149.288 26.3007 149.288 23.8348C149.288 21.3688 151.315 20.2248 153.89 20.2248C156.862 20.2248 158.514 21.7011 158.735 23.9677H156.026C155.894 22.7572 155.125 22.3158 153.848 22.3158C152.68 22.3158 151.911 22.7572 151.911 23.5713C151.911 24.5397 153.409 24.6275 155.015 24.9574C156.909 25.3538 159 25.883 159 28.5247C159 30.7936 157.064 32.1584 154.244 32.1584C150.964 32.1584 149.136 30.5729 148.958 28.1734L148.956 28.171Z" fill="#A2E86A"/>
<path d="M32.6199 31.6719L22.089 27.3309C21.6926 27.1671 21.2725 27.0817 20.8477 27.0817H20.8263C19.9315 27.0817 19.0795 27.4424 18.46 28.0832L17.5368 29.035C17.3255 29.251 17.0526 29.3673 16.7725 29.3815C16.4925 29.3696 16.2195 29.2533 16.0083 29.035L15.085 28.0832C14.4655 27.4424 13.6135 27.0817 12.7187 27.0817H12.6973C12.2725 27.0817 11.8524 27.1671 11.456 27.3309L2.38482 30.9883C2.05254 31.126 1.88403 31.5105 2.02643 31.8475L2.48451 32.9559C2.61979 33.2929 3.00903 33.4496 3.33894 33.3119L13.0391 29.3958C13.5803 29.1727 14.1214 29.7162 13.8912 30.2573L9.31047 41.2605C9.17281 41.5999 9.32946 41.9796 9.66649 42.1221C9.66649 42.1221 10.9339 42.6347 11.0312 42.6347C11.2899 42.6347 11.532 42.4828 11.6388 42.2336L16.2171 31.2233C16.3239 30.9717 16.547 30.8388 16.7773 30.8245C17.0075 30.8412 17.2306 30.9717 17.3374 31.2233L20.7599 39.4591C20.9023 39.7913 21.2844 39.9527 21.6214 39.8103L22.7298 39.3475C23.0668 39.2051 23.2235 38.8254 23.0858 38.486L19.6586 30.2549C19.4284 29.7138 19.9695 29.1703 20.5107 29.3934L31.6705 33.9907C32.0004 34.1284 32.3897 33.9717 32.5249 33.6347L32.983 32.5263C33.1254 32.1893 32.9569 31.8071 32.6246 31.6671L32.6199 31.6719Z" fill="#A2E86A"/>
<path d="M2.38175 15.7581L12.9126 20.0991C13.309 20.2628 13.7291 20.3483 14.1539 20.3483H14.1753C15.0701 20.3483 15.9221 19.9875 16.5416 19.3467L17.4649 18.3949C17.6761 18.179 17.949 18.0627 18.2291 18.0484C18.5092 18.0603 18.7821 18.1766 18.9933 18.3949L19.9166 19.3467C20.5361 19.9875 21.3881 20.3483 22.2829 20.3483H22.3043C22.7291 20.3483 23.1492 20.2628 23.5456 20.0991L32.6168 16.4416C32.9491 16.304 33.1176 15.9195 32.9752 15.5824L32.5171 14.4741C32.3818 14.137 31.9926 13.9804 31.6627 14.118L21.9625 18.0342C21.4214 18.2573 20.8802 17.7138 21.1104 17.1726L25.6912 6.16944C25.8288 5.83004 25.6722 5.45029 25.3351 5.30789C25.3351 5.30789 24.0677 4.79523 23.9704 4.79523C23.7117 4.79523 23.4696 4.94713 23.3628 5.19634L18.7845 16.2066C18.6777 16.4582 18.4546 16.5911 18.2244 16.6054C17.9941 16.5888 17.771 16.4582 17.6642 16.2066L14.2418 7.97087C14.0994 7.63859 13.7172 7.4772 13.3802 7.6196L12.2718 8.08242C11.9348 8.22483 11.7781 8.60457 11.9158 8.94397L15.343 17.175C15.5733 17.7162 15.0321 18.2597 14.491 18.0366L3.33112 13.4392C3.00122 13.3016 2.61198 13.4582 2.47669 13.7952L2.01862 14.9036C1.87621 15.2407 2.04473 15.6228 2.37701 15.7628L2.38175 15.7581Z" fill="#A2E86A"/>
<path d="M13.8058 24.3784C13.8129 24.7439 13.5091 25.0334 13.1507 25.0334H0.27962C-0.0574061 25.0334 -0.342216 24.7439 -0.335096 24.3784L-0.339844 23.175C-0.339844 22.8095 -0.0550303 22.52 0.281996 22.52H13.1531C13.5115 22.52 13.8153 22.8095 13.8153 23.175L13.8081 24.3784H13.8058Z" fill="#A2E86A"/>
<path d="M35.2124 24.3784C35.2172 24.7439 34.9348 25.0334 34.5977 25.0334H21.7266C21.3683 25.0334 21.0645 24.7439 21.0716 24.3784L21.0645 23.175C21.0645 22.8095 21.3659 22.52 21.7266 22.52H34.5977C34.9348 22.52 35.2196 22.8095 35.2196 23.175L35.2148 24.3784H35.2124Z" fill="#A2E86A"/>
</g>
<defs>
<clipPath id="clip0_520_148173">
<rect width="157.5" height="48" fill="white"/>
</clipPath>
</defs>
</svg>
