<svg width="144" height="143" viewBox="0 0 144 143" fill="none" xmlns="http://www.w3.org/2000/svg">
<g clip-path="url(#clip0_547_423821)">
<path d="M110.46 68.1924L83.741 57.1782C82.739 56.7636 81.6678 56.5476 80.5879 56.5476H80.5361C78.2642 56.5476 76.1045 57.4633 74.5323 59.0873L72.1912 61.5061C71.6556 62.059 70.9646 62.3527 70.2562 62.3873C69.5478 62.3527 68.8568 62.059 68.3212 61.5061L65.9801 59.0873C64.4079 57.4633 62.2482 56.5476 59.9763 56.5476H59.9245C58.8446 56.5476 57.7821 56.7636 56.7714 57.1782L33.7582 66.456C32.9116 66.8102 32.4883 67.7778 32.8512 68.633L34.0174 71.4492C34.3629 72.3044 35.3477 72.7017 36.1856 72.3476L60.7883 62.4132C62.1619 61.8431 63.5354 63.2252 62.948 64.5988L51.3291 92.5187C50.9749 93.3825 51.3809 94.3414 52.2275 94.7042C52.2275 94.7042 55.441 96 55.6916 96C56.3481 96 56.9614 95.6199 57.2292 94.9806L68.8481 67.0521C69.1159 66.4129 69.6861 66.076 70.2649 66.0414C70.8436 66.0846 71.4138 66.4129 71.6816 67.0521L80.3634 87.9488C80.7262 88.7954 81.6937 89.2014 82.5489 88.8386L85.3651 87.6638C86.2203 87.3009 86.6177 86.3421 86.2635 85.4782L77.5731 64.5988C76.9943 63.2252 78.3592 61.8517 79.7327 62.4132L108.041 74.0753C108.879 74.4295 109.864 74.0235 110.21 73.1769L111.376 70.3607C111.739 69.5055 111.315 68.5379 110.469 68.1838L110.46 68.1924Z" fill="#A3E96B"/>
<path d="M33.7493 27.8076L60.4684 38.8218C61.4705 39.2364 62.5417 39.4524 63.6215 39.4524H63.6733C65.9453 39.4524 68.1049 38.5367 69.6771 36.9126L72.0182 34.4938C72.5538 33.941 73.2449 33.6473 73.9532 33.6127C74.6616 33.6473 75.3527 33.941 75.8883 34.4938L78.2293 36.9126C79.8016 38.5367 81.9612 39.4524 84.2331 39.4524H84.285C85.3648 39.4524 86.4273 39.2364 87.4381 38.8218L110.451 29.5439C111.298 29.1898 111.721 28.2222 111.358 27.367L110.192 24.5508C109.847 23.6956 108.862 23.2982 108.024 23.6524L83.4211 33.5868C82.0476 34.1569 80.674 32.7748 81.2615 31.4012L92.8804 3.48135C93.2345 2.61749 92.8285 1.65861 91.9819 1.29579C91.9819 1.29579 88.7684 0 88.5179 0C87.8614 0 87.248 0.380098 86.9802 1.01935L75.3613 28.9479C75.0935 29.5871 74.5234 29.924 73.9446 29.9586C73.3658 29.9154 72.7957 29.5871 72.5279 28.9479L63.8461 8.05116C63.4833 7.20458 62.5158 6.79856 61.6605 7.16138L58.8444 8.33623C57.9891 8.69905 57.5918 9.65793 57.9459 10.5218L66.6363 31.4012C67.2151 32.7748 65.8502 34.1483 64.4767 33.5868L36.1681 21.9247C35.3301 21.5705 34.3453 21.9765 33.9998 22.8231L32.8336 25.6393C32.4708 26.4945 32.8941 27.462 33.7406 27.8162L33.7493 27.8076Z" fill="#A3E96B"/>
<path d="M62.7341 49.6886C62.7514 50.613 61.9826 51.3472 61.0755 51.3472H28.4217C27.5665 51.3472 26.8408 50.613 26.8581 49.6886L26.8408 46.6392C26.8408 45.7149 27.5578 44.9806 28.4217 44.9806H61.0755C61.9826 44.9806 62.7514 45.7149 62.7514 46.6392L62.7341 49.6886Z" fill="#A3E96B"/>
<path d="M117.032 49.6886C117.049 50.613 116.324 51.3472 115.468 51.3472H82.8146C81.9075 51.3472 81.1387 50.613 81.1559 49.6886L81.1387 46.6392C81.1387 45.7149 81.9075 44.9806 82.8146 44.9806H115.468C116.324 44.9806 117.049 45.7149 117.049 46.6392L117.032 49.6886Z" fill="#A3E96B"/>
</g>
<path d="M0.00438403 122H8.89527C11.2472 122 13.0035 122.678 14.1904 123.896C15.3247 125.057 16.0036 126.642 16.0036 128.512C16.0036 132.336 13.4809 134.911 9.23251 134.911H4.24836V142.247H0V121.995L0.00438403 122ZM4.25273 131.574H8.5011C10.6516 131.574 11.7859 130.382 11.7859 128.543C11.7859 126.703 10.5946 125.569 8.55804 125.569H4.25273V131.574Z" fill="#A3E96B"/>
<path d="M20.7375 130.045H20.8207C21.6967 128.402 22.6909 127.553 24.3902 127.553C24.815 127.553 25.0691 127.579 25.2968 127.667V131.039H25.2136C22.6909 130.785 20.882 132.116 20.882 135.174V142.256H17.0322V127.728H20.7419V130.049L20.7375 130.045Z" fill="#A3E96B"/>
<path d="M26.2588 121.999H30.1086V125.455H26.2588V121.999ZM26.2588 127.724H30.1086V142.251H26.2588V127.724Z" fill="#A3E96B"/>
<path d="M31.8965 127.724H35.6061V129.677H35.6893C36.4821 128.345 37.8967 127.325 39.9114 127.325C41.7509 127.325 43.2269 128.345 43.932 129.874H43.989C44.9788 128.288 46.5117 127.325 48.3512 127.325C51.4083 127.325 53.1383 129.309 53.1383 132.48V142.251H49.2885V133.132C49.2885 131.49 48.4651 130.64 47.0504 130.64C45.4343 130.64 44.4445 131.884 44.4445 133.811V142.251H40.5947V133.132C40.5947 131.49 39.7713 130.64 38.3566 130.64C36.7974 130.64 35.7507 131.884 35.7507 133.811V142.251H31.9009V127.724H31.8965Z" fill="#A3E96B"/>
<path d="M54.1035 134.972C54.1035 130.667 57.0204 127.325 61.2688 127.325C65.942 127.325 68.434 130.894 68.434 136.076H57.8964C58.1811 138.314 59.4249 139.702 61.606 139.702C63.1083 139.702 63.9842 139.023 64.4091 137.92H68.2063C67.6676 140.495 65.3726 142.676 61.6367 142.676C56.8233 142.676 54.1035 139.304 54.1035 134.972ZM57.9533 133.413H64.4091C64.2952 131.573 63.0776 130.299 61.3213 130.299C59.2804 130.299 58.2905 131.516 57.9533 133.413Z" fill="#A3E96B"/>
<path d="M72.3701 121.999H76.6754L80.2449 133.724C80.6435 135.055 81.1209 136.952 81.1209 136.952H81.1778C81.1778 136.952 81.6596 135.025 82.0537 133.724L85.5926 121.999H89.7577L82.9341 142.251H79.1938L72.3701 121.999Z" fill="#A3E96B"/>
<path d="M97.3472 140.635H97.2903C96.5545 141.739 95.5077 142.588 93.0156 142.588C90.0418 142.588 87.9482 141.029 87.9482 138.143C87.9482 134.941 90.5542 133.921 93.7821 133.47C96.1909 133.128 97.2946 132.931 97.2946 131.827C97.2946 130.781 96.4712 130.102 94.8595 130.102C93.0463 130.102 92.1703 130.754 92.0564 132.143H88.6315C88.7454 129.594 90.6418 127.356 94.8901 127.356C99.1385 127.356 101.009 129.309 101.009 132.708V140.101C101.009 141.204 101.179 141.857 101.517 142.111V142.251H97.8071C97.5793 141.966 97.4392 141.288 97.3559 140.635H97.3472ZM97.3779 137.122V134.941C96.699 135.34 95.6522 135.563 94.6887 135.791C92.6784 136.242 91.6885 136.698 91.6885 138.055C91.6885 139.413 92.5952 139.895 93.9529 139.895C96.1603 139.895 97.3779 138.537 97.3779 137.118V137.122Z" fill="#A3E96B"/>
<path d="M111.906 142.251V140.552H111.822C110.833 141.883 109.698 142.65 107.657 142.65C104.429 142.65 102.616 140.582 102.616 137.411V127.723H106.44V136.759C106.44 138.458 107.206 139.391 108.849 139.391C110.662 139.391 111.766 138.033 111.766 136.106V127.723H115.615V142.251H111.906Z" fill="#A3E96B"/>
<path d="M117.461 121.999H121.311V142.251H117.461V121.999Z" fill="#A3E96B"/>
<path d="M122.299 127.724H124.309V123.19H128.076V127.724H130.568V130.273H128.076V137.977C128.076 139.054 128.671 139.422 129.521 139.422C130.003 139.422 130.655 139.396 130.655 139.396V142.229C130.655 142.229 129.779 142.286 128.247 142.286C126.376 142.286 124.309 141.55 124.309 138.804V130.281H122.299V127.732V127.724Z" fill="#A3E96B"/>
<path d="M131.08 137.548H134.65C134.904 139.221 136.095 139.956 137.821 139.956C139.546 139.956 140.483 139.304 140.483 138.283C140.483 136.895 138.644 136.755 136.66 136.356C134.054 135.848 131.505 135.139 131.505 131.968C131.505 128.797 134.111 127.321 137.426 127.321C141.25 127.321 143.374 129.217 143.659 132.134H140.177C140.006 130.575 139.016 130.01 137.374 130.01C135.872 130.01 134.882 130.575 134.882 131.626C134.882 132.874 136.809 132.984 138.876 133.409C141.311 133.917 144 134.6 144 137.999C144 140.916 141.508 142.672 137.882 142.672C133.66 142.672 131.312 140.631 131.084 137.548H131.08Z" fill="#A3E96B"/>
<defs>
<clipPath id="clip0_547_423821">
<rect width="96" height="95.9951" fill="white" transform="translate(24)"/>
</clipPath>
</defs>
</svg>
